<svg xmlns="http://www.w3.org/2000/svg" viewBox="0 0 24 24"><path d="M18.285 17a2.857 2.857 0 0 1-1.856-5.03l1.483 2.57a.429.429 0 0 0 .768-.38l-1.525-2.642A2.858 2.858 0 1 1 18.285 17m-5.638-3.86a1.507 1.507 0 0 0-1.076-.425 1.56 1.56 0 0 0-.332.035s-1.387-2.375-1.418-2.445c-.027-.065.037-.124.143-.126l4.805-.894a.429.429 0 0 1 .429.429c0 .236-2.55 3.426-2.55 3.426M11.57 15a.714.714 0 1 1 .715-.715.714.714 0 0 1-.715.715m-1.511-1.146h-.643a3.707 3.707 0 0 0-1.735-2.861H7.68l.587-1.367c.03-.072.039-.137.1-.137.058.001.07.061.112.137l2.003 3.527a1.576 1.576 0 0 0-.422.701m-3.473 0c-.079 0-.175-.061-.143-.142l.867-1.938a2.854 2.854 0 0 1 1.245 2.08zM5.714 17a2.857 2.857 0 1 1 .85-5.586L5.428 13.86a.592.592 0 0 0 .572.857h2.513A2.86 2.86 0 0 1 5.713 17m12.572-6.572a3.7 3.7 0 0 0-1.56.343l-1.344-2.35a1.866 1.866 0 0 1-.157-.574c-.005-.505.487-1.076.49-1.276a.427.427 0 0 0-.429-.428h-1.429a.427.427 0 1 0 0 .854h.597a.132.132 0 0 1 .13.145c.003.196-.174.273-.178.682a1.1 1.1 0 0 0 .095.461.252.252 0 0 1-.035.278c-.128.027-4.803.904-4.803.904a.234.234 0 0 1-.219-.07S8.345 7.943 8.44 7.756c.067-.13.989-.185.989-.185.162-.063.285-.128.285-.286A.285.285 0 0 0 9.43 7H6.714a.429.429 0 1 0 0 .857 2.677 2.677 0 0 1 .714-.054 1.472 1.472 0 0 1 .415.771 20.058 20.058 0 0 1-.94 2.048 3.715 3.715 0 1 0 2.482 4.089h.672a1.572 1.572 0 0 0 3.034-.827l2.373-3.15a.187.187 0 0 1 .163-.022.156.156 0 0 1 .112.077c.025.045.253.431.253.431a3.715 3.715 0 1 0 2.293-.792"/></svg>