<svg xmlns="http://www.w3.org/2000/svg" viewBox="0 0 24 24"><path d="M19.027 15.808l.176.091-.548.758-.05-.027a3.278 3.278 0 0 0-1.758-.454 3.296 3.296 0 0 0-1.76.454 4.193 4.193 0 0 1-2.182.558 4.187 4.187 0 0 1-2.18-.558 3.297 3.297 0 0 0-1.761-.454 3.273 3.273 0 0 0-1.757.454 4.2 4.2 0 0 1-2.183.558 4.203 4.203 0 0 1-2.182-.558A3.942 3.942 0 0 0 2 16.28l.25-.89a4.916 4.916 0 0 1 1.016.418 3.274 3.274 0 0 0 1.758.456 3.285 3.285 0 0 0 1.76-.456 4.183 4.183 0 0 1 2.18-.555 4.194 4.194 0 0 1 2.183.555 3.275 3.275 0 0 0 1.759.456 3.283 3.283 0 0 0 1.758-.456 4.19 4.19 0 0 1 2.183-.555 4.191 4.191 0 0 1 2.18.555zm2.781-4.075a.183.183 0 0 1 .192.195.25.25 0 0 1-.039.117l-2.289 3.166-.194-.099a5.18 5.18 0 0 0-2.631-.665 5.195 5.195 0 0 0-2.635.665 2.315 2.315 0 0 1-1.307.346 2.32 2.32 0 0 1-1.308-.346 5.183 5.183 0 0 0-2.633-.665 5.18 5.18 0 0 0-2.631.665 2.324 2.324 0 0 1-1.309.346 2.32 2.32 0 0 1-1.306-.346 5.755 5.755 0 0 0-1.23-.497l.743-2.63a.344.344 0 0 1 .334-.254h.948L5.1 9.178a.339.339 0 0 1 .328-.307h7.182V7.109a.418.418 0 0 1 .32-.467l2.268-.82a.254.254 0 0 1 .069-.01.248.248 0 0 1 .237.172l.364 1.438h1.603c.184 0 .294.05.333.26l1.001 4.05zm-8.561-.001h3.628l-.343-1.366h-3.285zm-3.936 0h3.285v-1.366H9.31zm-.65 0v-1.366H5.704l-.309 1.366z"/></svg>