<svg xmlns="http://www.w3.org/2000/svg" viewBox="0 0 24 24"><path style="fill:white;" d="M17.108 12.04h3.993V8.83h-3.993zm-14.208 0h3.992V8.83H2.9zm4.739 0h3.99V8.83H7.637zm4.735 0h4V8.83h-4zm-3.139 3.163a1.607 1.607 0 0 1-1.021 1.488 1.7 1.7 0 0 1-1.812-.346 1.57 1.57 0 0 1-.36-1.752 1.661 1.661 0 0 1 1.534-.993 1.684 1.684 0 0 1 1.173.469 1.578 1.578 0 0 1 .486 1.134zm8.85 0a1.607 1.607 0 0 1-1.022 1.487 1.7 1.7 0 0 1-1.81-.345 1.57 1.57 0 0 1-.362-1.751 1.66 1.66 0 0 1 1.533-.994 1.686 1.686 0 0 1 1.173.469 1.58 1.58 0 0 1 .487 1.134zM22 7.582v7.469a.404.404 0 0 1-.408.396h-3.025a2.187 2.187 0 0 0 .016-.244 2.16 2.16 0 0 0-4.314 0 2.074 2.074 0 0 0 .017.244H9.717a1.971 1.971 0 0 0 .017-.244 2.16 2.16 0 0 0-4.314 0 1.84 1.84 0 0 0 .013.243H2.408A.404.404 0 0 1 2 15.05V7.582a.403.403 0 0 1 .408-.397h19.184a.403.403 0 0 1 .408.397z"/></svg>