<svg xmlns="http://www.w3.org/2000/svg" viewBox="0 0 24 24"><path d="M20.197 5.058A1.81 1.81 0 0 1 22 6.877v9.89l-3.39 3.418H3.802A1.81 1.81 0 0 1 2 18.367V6.877a1.81 1.81 0 0 1 1.802-1.82h2.115V3.68a.366.366 0 0 1 .364-.367h1.157a.366.366 0 0 1 .365.367v1.377h8.387V3.68a.366.366 0 0 1 .365-.367h1.157a.366.366 0 0 1 .365.367v1.377zm.592 9.985V6.877a.596.596 0 0 0-.592-.6h-2.12v1a.366.366 0 0 1-.365.366h-1.157a.366.366 0 0 1-.365-.366v-1H7.803v1a.365.365 0 0 1-.365.366H6.281a.366.366 0 0 1-.364-.366v-1H3.802a.595.595 0 0 0-.591.6v11.49a.596.596 0 0 0 .59.598h13.102v-2.103a1.81 1.81 0 0 1 1.802-1.82zM7.364 10.065a.694.694 0 0 1 .689.695v.39a.695.695 0 0 1-.69.696h-1.27a.695.695 0 0 1-.69-.696v-.39a.694.694 0 0 1 .69-.695zm3.57 0a.694.694 0 0 1 .688.695v.39a.694.694 0 0 1-.689.696H9.661a.695.695 0 0 1-.689-.696v-.39a.694.694 0 0 1 .69-.695zm3.466 0a.694.694 0 0 1 .688.695v.39a.695.695 0 0 1-.688.696h-1.272a.695.695 0 0 1-.69-.696v-.39a.694.694 0 0 1 .69-.695zm3.507 0a.694.694 0 0 1 .69.695v.39a.694.694 0 0 1-.69.696h-1.271a.695.695 0 0 1-.69-.696v-.39a.694.694 0 0 1 .69-.695zM7.364 12.708a.694.694 0 0 1 .689.694v.39a.695.695 0 0 1-.69.695h-1.27a.695.695 0 0 1-.69-.695v-.39a.694.694 0 0 1 .69-.694zm3.57 0a.694.694 0 0 1 .688.694v.39a.694.694 0 0 1-.689.695H9.661a.694.694 0 0 1-.689-.695v-.39a.694.694 0 0 1 .69-.694zm3.466 0a.694.694 0 0 1 .688.694v.39a.694.694 0 0 1-.688.695h-1.272a.695.695 0 0 1-.69-.695v-.39a.694.694 0 0 1 .69-.694zm3.507 0a.694.694 0 0 1 .69.694v.39a.694.694 0 0 1-.69.695h-1.271a.695.695 0 0 1-.69-.695v-.39a.694.694 0 0 1 .69-.694zM7.364 15.37a.694.694 0 0 1 .689.695v.39a.694.694 0 0 1-.69.694h-1.27a.694.694 0 0 1-.69-.695v-.39a.694.694 0 0 1 .69-.694zm3.57 0a.694.694 0 0 1 .688.695v.39a.694.694 0 0 1-.689.694H9.661a.694.694 0 0 1-.689-.695v-.39a.694.694 0 0 1 .69-.694zm3.466 0a.694.694 0 0 1 .688.695v.39a.694.694 0 0 1-.688.694h-1.272a.694.694 0 0 1-.69-.695v-.39a.694.694 0 0 1 .69-.694zm6.39.896v-.003h-2.084a.596.596 0 0 0-.591.599v2.103h.003z"/></svg>