<svg xmlns="http://www.w3.org/2000/svg" viewBox="0 0 24 24"><path d="M12 8.038c4.125 0 7.5 3.144 7.5 6.918A7.288 7.288 0 0 1 12 22a7.288 7.288 0 0 1-7.5-7.044A6.819 6.819 0 0 1 7.75 9.17V6.025A4.099 4.099 0 0 1 12 2a4.18 4.18 0 0 1 4.25 4.025v.126a.968.968 0 0 1-1 .88.894.894 0 0 1-1-.88v-.126A2.224 2.224 0 0 0 12 3.887 2.248 2.248 0 0 0 9.75 6.15v2.264A7.037 7.037 0 0 1 12 8.038zm0 12.201a5.435 5.435 0 0 0 5.5-5.283A5.313 5.313 0 0 0 12 9.925a5.332 5.332 0 0 0-5.5 5.157 5.415 5.415 0 0 0 5.5 5.157zm0-7.74a.968.968 0 0 1 1 .88v3.019a.894.894 0 0 1-1 .88.894.894 0 0 1-1-.88V13.38a.968.968 0 0 1 1-.881z"/></svg>