<svg xmlns="http://www.w3.org/2000/svg" viewBox="0 0 24 24"><path d="M18.443 10.318a3.48 3.48 0 0 0-1.08.168l-.656-1.471-1.073-2.404H13.97a.393.393 0 1 0 0 .785h1.157l.65 1.444c-1.348.294-1.807 1.619-2.188 2.712a4.611 4.611 0 0 1-.762 1.584 1.407 1.407 0 0 0-1.207-.68 2.01 2.01 0 0 0-.205.014l-1.56-3.49 1.15-.267a.257.257 0 0 0 .212-.252.264.264 0 0 0-.261-.259H7.914a.61.61 0 1 0 0 1.22.458.458 0 0 0 .141-.022l1.01-.238.458 1.016-1.46 1.17a3.528 3.528 0 1 0 1.03 2.894h1.164a1.412 1.412 0 0 0 2.759-.266 3.966 3.966 0 0 0 1.305-2.18c.452-1.29.812-2.116 1.779-2.228l.55 1.233a3.558 3.558 0 1 0 1.792-.483zm-7.749 2.474a1.404 1.404 0 0 0-.437.673H9.092a3.426 3.426 0 0 0-.536-1.507l1.299-1.037zm-5.137 3.742a2.7 2.7 0 0 1-2.675-2.292h2.675a.704.704 0 0 0 .423-.147L7.9 12.54a2.678 2.678 0 0 1-2.343 3.994zm12.886 0a2.678 2.678 0 0 1-1.447-4.947l1.087 2.424a.391.391 0 0 0 .36.231.452.452 0 0 0 .163-.035.381.381 0 0 0 .197-.511l-1.087-2.425a2.755 2.755 0 0 1 .727-.098 2.68 2.68 0 1 1 0 5.361z"/></svg>