<svg xmlns="http://www.w3.org/2000/svg" viewBox="0 0 24 24"><path d="M12 16.118A4.118 4.118 0 1 1 16.118 12 4.122 4.122 0 0 1 12 16.118zm0-7.42A3.303 3.303 0 1 0 15.302 12 3.306 3.306 0 0 0 12 8.697zM12.954 22h-1.908a1.103 1.103 0 0 1-1.1-1.102v-1.745c-.11-.042-.244-.089-.375-.135a10.817 10.817 0 0 1-1.19-.473l-1.21 1.21a1.13 1.13 0 0 1-1.558.001l-1.369-1.369a1.1 1.1 0 0 1 0-1.558l1.209-1.209a8.472 8.472 0 0 1-.687-2.227H3.102A1.104 1.104 0 0 1 2 12.291v-1.245a1.103 1.103 0 0 1 1.102-1.101h1.706a10.25 10.25 0 0 1 .642-1.568L4.244 7.171a1.103 1.103 0 0 1 0-1.559l1.37-1.368a1.128 1.128 0 0 1 1.557 0L8.377 5.45a9.5 9.5 0 0 1 1.568-.646V3.101A1.102 1.102 0 0 1 11.046 2h1.908a1.102 1.102 0 0 1 1.1 1.101v1.702a10.067 10.067 0 0 1 1.567.647l1.207-1.206a1.13 1.13 0 0 1 1.558 0l1.37 1.368a1.102 1.102 0 0 1 0 1.559l-1.204 1.204a7.888 7.888 0 0 1 .644 1.57h1.702A1.103 1.103 0 0 1 22 11.046v1.245a1.104 1.104 0 0 1-1.102 1.102h-1.653a5.152 5.152 0 0 1-.689 2.236l1.2 1.2a1.1 1.1 0 0 1 0 1.558l-1.37 1.368a1.13 1.13 0 0 1-1.557 0l-1.21-1.21a10.746 10.746 0 0 1-1.19.473c-.13.046-.264.093-.374.134v1.746A1.103 1.103 0 0 1 12.954 22zm-4.706-4.454l.27.164a7.695 7.695 0 0 0 1.32.553 5.82 5.82 0 0 1 .7.276l.208.114v2.245a.302.302 0 0 0 .3.302h1.908a.302.302 0 0 0 .301-.302v-2.245l.209-.114a5.516 5.516 0 0 1 .7-.276 7.807 7.807 0 0 0 1.318-.552l.268-.164 1.644 1.643a.31.31 0 0 0 .427 0l1.369-1.369a.301.301 0 0 0 0-.426l-1.644-1.644.164-.27a4.817 4.817 0 0 0 .782-2.53l.038-.358h2.368a.302.302 0 0 0 .302-.302v-1.245a.302.302 0 0 0-.302-.301h-2.323l-.075-.305a6.94 6.94 0 0 0-.79-1.923l-.164-.269 1.644-1.643a.297.297 0 0 0 .088-.213.303.303 0 0 0-.088-.214L17.82 4.81a.31.31 0 0 0-.427 0L15.75 6.454l-.269-.164a8.126 8.126 0 0 0-1.902-.786l-.324-.063v-2.34a.302.302 0 0 0-.302-.301h-1.906a.302.302 0 0 0-.302.301v2.332l-.315.068a7.985 7.985 0 0 0-1.912.788l-.269.164L6.606 4.81a.31.31 0 0 0-.427 0L4.81 6.179a.303.303 0 0 0 0 .427L6.453 8.25l-.163.27a8.726 8.726 0 0 0-.792 1.921l-.074.305H3.102a.302.302 0 0 0-.302.302v1.244a.302.302 0 0 0 .302.302H5.46l.047.347a7.333 7.333 0 0 0 .783 2.542l.164.269-1.644 1.644a.301.301 0 0 0 0 .426l1.369 1.368a.31.31 0 0 0 .427 0z" fill-rule="evenodd"/></svg>