<svg xmlns="http://www.w3.org/2000/svg" viewBox="0 0 24 24"><path d="M12.954 22h-1.908a1.103 1.103 0 0 1-1.1-1.102v-1.745c-.11-.042-.244-.089-.375-.135a10.817 10.817 0 0 1-1.19-.473l-1.21 1.21a1.13 1.13 0 0 1-1.558.001l-1.369-1.369a1.1 1.1 0 0 1 0-1.558l1.209-1.209a8.472 8.472 0 0 1-.687-2.227H3.102A1.104 1.104 0 0 1 2 12.291v-1.245a1.103 1.103 0 0 1 1.102-1.101h1.706a10.25 10.25 0 0 1 .642-1.568L4.244 7.171a1.103 1.103 0 0 1 0-1.559l1.37-1.368a1.128 1.128 0 0 1 1.557 0L8.377 5.45a9.5 9.5 0 0 1 1.568-.646V3.101A1.102 1.102 0 0 1 11.046 2h1.908a1.102 1.102 0 0 1 1.1 1.101v1.702a10.067 10.067 0 0 1 1.567.647l1.207-1.206a1.13 1.13 0 0 1 1.558 0l1.37 1.368a1.102 1.102 0 0 1 0 1.559l-1.204 1.204a7.888 7.888 0 0 1 .644 1.57h1.702A1.103 1.103 0 0 1 22 11.046v1.245a1.104 1.104 0 0 1-1.102 1.102h-1.653a5.152 5.152 0 0 1-.689 2.236l1.2 1.2a1.1 1.1 0 0 1 0 1.558l-1.37 1.368a1.13 1.13 0 0 1-1.557 0l-1.21-1.21a10.746 10.746 0 0 1-1.19.473c-.13.046-.264.093-.374.134v1.746A1.103 1.103 0 0 1 12.954 22zM12 16a4 4 0 1 0-4-4 4.005 4.005 0 0 0 4 4z" fill-rule="evenodd"/></svg>