<svg xmlns="http://www.w3.org/2000/svg" viewBox="0 0 24 24"><path d="M18.615 2H7.378a.342.342 0 0 0-.329.353V3.2h10.242a.343.343 0 0 1 .33.353v16.495h.994a.343.343 0 0 0 .329-.352V2.353a.343.343 0 0 0-.33-.353z"/><path d="M16.622 3.95H5.385a.342.342 0 0 0-.328.353v17.344a.343.343 0 0 0 .328.353h11.237a.343.343 0 0 0 .329-.353V4.304a.342.342 0 0 0-.33-.353zm-4.556 12.501a.143.143 0 0 1-.138.147H6.641a.143.143 0 0 1-.137-.147v-.27a.144.144 0 0 1 .137-.148h5.287a.144.144 0 0 1 .138.148zm3.254-1.507a.18.18 0 0 1-.173.185h-8.47a.18.18 0 0 1-.173-.185v-.193a.18.18 0 0 1 .173-.186h8.47a.18.18 0 0 1 .173.186zm0-1.47a.18.18 0 0 1-.173.186h-8.47a.18.18 0 0 1-.173-.186v-.194a.18.18 0 0 1 .173-.186h8.47a.18.18 0 0 1 .173.186zm0-1.47a.18.18 0 0 1-.173.186h-8.47a.18.18 0 0 1-.173-.186v-.193a.18.18 0 0 1 .173-.187h8.47a.18.18 0 0 1 .173.187zm0-1.568a.197.197 0 0 1-.189.203H6.692a.197.197 0 0 1-.189-.203v-.712a.197.197 0 0 1 .19-.203h8.438a.197.197 0 0 1 .19.203z"/></svg>