<svg xmlns="http://www.w3.org/2000/svg" viewBox="0 0 24 24"><path d="M4.572 19.8h14.857L12 4.942zm7.965-16.468l8.399 16.8a.6.6 0 0 1-.537.868H3.601a.6.6 0 0 1-.537-.868l8.4-16.8a.6.6 0 0 1 1.073 0zm-1.182 10.947a2.654 2.654 0 0 0 .176.812.443.443 0 0 0 .44.266.46.46 0 0 0 .445-.275 2.264 2.264 0 0 0 .176-.791l.252-2.889a7.676 7.676 0 0 0 .04-.785 2.358 2.358 0 0 0-.17-1.005.675.675 0 0 0-.673-.348.876.876 0 0 0-.67.272 1.068 1.068 0 0 0-.256.759q0 .357.053 1.178zm.65 3.856a.897.897 0 0 0 .616-.235.818.818 0 0 0 .264-.644.832.832 0 0 0-.261-.619.868.868 0 0 0-.63-.255.87.87 0 0 0-.879.873.812.812 0 0 0 .267.648.922.922 0 0 0 .624.232z"/></svg>