<svg xmlns="http://www.w3.org/2000/svg" viewBox="0 0 24 24"><path d="M12 22a10 10 0 1 1 10-10 10 10 0 0 1-10 10zm0-1.333A8.667 8.667 0 1 0 3.333 12 8.667 8.667 0 0 0 12 20.667zm-.788-7.881l-.229-3.43q-.064-1.003-.064-1.44a1.305 1.305 0 0 1 .311-.927 1.07 1.07 0 0 1 .82-.333.825.825 0 0 1 .824.426 2.882 2.882 0 0 1 .207 1.228 9.372 9.372 0 0 1-.05.96l-.308 3.53a2.767 2.767 0 0 1-.215.967.563.563 0 0 1-.544.336.542.542 0 0 1-.537-.325 3.243 3.243 0 0 1-.215-.992zm.795 4.712a1.127 1.127 0 0 1-.763-.283.992.992 0 0 1-.325-.791 1.064 1.064 0 0 1 1.074-1.067 1.061 1.061 0 0 1 .77.311 1.017 1.017 0 0 1 .318.756 1 1 0 0 1-.322.788 1.096 1.096 0 0 1-.752.286z"/></svg>