<svg xmlns="http://www.w3.org/2000/svg" viewBox="0 0 24 24"><path d="M13.407 18.625a1.877 1.877 0 0 1 .588 1.394 1.844 1.844 0 0 1-.595 1.453 2.022 2.022 0 0 1-1.387.528 2.079 2.079 0 0 1-1.407-.522 1.83 1.83 0 0 1-.6-1.46 1.962 1.962 0 0 1 1.98-1.968 1.957 1.957 0 0 1 1.42.575zm-2.86-5.317a5.98 5.98 0 0 0 .396 1.83 1 1 0 0 0 .99.6 1.038 1.038 0 0 0 1.005-.62 5.105 5.105 0 0 0 .396-1.783l.568-6.513a17.266 17.266 0 0 0 .093-1.77 5.317 5.317 0 0 0-.383-2.266A1.522 1.522 0 0 0 12.092 2a1.974 1.974 0 0 0-1.512.614 2.406 2.406 0 0 0-.575 1.711q0 .806.12 2.655z"/></svg>