<svg xmlns="http://www.w3.org/2000/svg" viewBox="0 0 24 24"><path d="M12 22a10 10 0 1 1 10-10 10 10 0 0 1-10 10zm0-1.333A8.667 8.667 0 1 0 3.333 12 8.667 8.667 0 0 0 12 20.667zm.978-9.994v5.65a1.262 1.262 0 0 1-.28.888.925.925 0 0 1-.709.301.883.883 0 0 1-.698-.308 1.3 1.3 0 0 1-.269-.88V10.73a1.255 1.255 0 0 1 .269-.873.902.902 0 0 1 .698-.294.936.936 0 0 1 .71.294 1.137 1.137 0 0 1 .278.816zm-.967-2.02a1.032 1.032 0 0 1-.698-.25.973.973 0 0 1 .007-1.393.999.999 0 0 1 .691-.269 1.025 1.025 0 0 1 .673.244.868.868 0 0 1 .294.709.894.894 0 0 1-.287.705.991.991 0 0 1-.68.255z"/></svg>