<svg xmlns="http://www.w3.org/2000/svg" viewBox="0 0 24 24"><path d="M16.7 14.646H7.3a5.28 5.28 0 0 0-5.3 5h20a5.21 5.21 0 0 0-5.3-5zM8.063 6.715a.34.34 0 0 0-.014.677A4.27 4.27 0 0 0 9.1 11.746a4.05 4.05 0 0 0 5.9 0 4.268 4.268 0 0 0 .68-5.188l1.803-.204c.319-.023.446-.22.425-.41a.363.363 0 0 0-.407-.301l-1.335.15c.013-.026.033-.046.044-.074l.305-.711a1.187 1.187 0 0 0 .102-.508.945.945 0 0 0-1.053-.888s-7.114.711-7.114.813a1.33 1.33 0 0 0-.776 1.599 1.794 1.794 0 0 0 .389.691z" fill-rule="evenodd"/></svg>