<svg xmlns="http://www.w3.org/2000/svg" viewBox="0 0 24 24"><path d="M12 3c-2.444 0-2.75.01-3.71.054a6.605 6.605 0 0 0-2.185.418 4.6 4.6 0 0 0-2.633 2.633 6.605 6.605 0 0 0-.418 2.184C3.01 9.25 3 9.556 3 12s.01 2.75.054 3.71a6.605 6.605 0 0 0 .418 2.185 4.6 4.6 0 0 0 2.633 2.632 6.605 6.605 0 0 0 2.184.419C9.25 20.99 9.556 21 12 21s2.75-.01 3.71-.054a6.605 6.605 0 0 0 2.185-.419 4.6 4.6 0 0 0 2.632-2.632 6.605 6.605 0 0 0 .419-2.184C20.99 14.75 21 14.444 21 12s-.01-2.75-.054-3.71a6.605 6.605 0 0 0-.419-2.185 4.6 4.6 0 0 0-2.632-2.632 6.605 6.605 0 0 0-2.184-.419C14.75 3.01 14.444 3 12 3zm0 1.622c2.403 0 2.688.009 3.637.052a4.977 4.977 0 0 1 1.67.31 2.98 2.98 0 0 1 1.709 1.708 4.977 4.977 0 0 1 .31 1.671c.043.95.052 1.234.052 3.637s-.009 2.688-.052 3.637a4.977 4.977 0 0 1-.31 1.67 2.98 2.98 0 0 1-1.708 1.709 4.977 4.977 0 0 1-1.671.31c-.95.043-1.234.052-3.637.052s-2.688-.009-3.637-.052a4.977 4.977 0 0 1-1.67-.31 2.98 2.98 0 0 1-1.709-1.708 4.977 4.977 0 0 1-.31-1.671c-.043-.95-.052-1.234-.052-3.637s.009-2.688.052-3.637a4.977 4.977 0 0 1 .31-1.67 2.98 2.98 0 0 1 1.708-1.709 4.977 4.977 0 0 1 1.671-.31c.95-.043 1.234-.052 3.637-.052zM12 15a3 3 0 1 1 3-3 3 3 0 0 1-3 3zm0-7.622A4.622 4.622 0 1 0 16.622 12 4.622 4.622 0 0 0 12 7.378zm5.884-.182a1.08 1.08 0 1 0-1.08 1.08 1.08 1.08 0 0 0 1.08-1.08z"/></svg>