<svg xmlns="http://www.w3.org/2000/svg" viewBox="0 0 24 24"><path d="M20.762 5.574a4.259 4.259 0 0 1 0 6.005l-4.855 4.853a4.258 4.258 0 0 1-5.256.586 4.18 4.18 0 0 1-.748-.586 4.287 4.287 0 0 1 0-6.004l.136-.136a2.325 2.325 0 0 1 1.333 1.335l-.135.135a2.361 2.361 0 0 0-.525 2.527 2.322 2.322 0 0 0 1.333 1.334 2.36 2.36 0 0 0 2.529-.525l4.853-4.854a2.359 2.359 0 1 0-3.335-3.336l-1.188 1.189a3.927 3.927 0 0 0-1.335-1.335l1.189-1.188a4.258 4.258 0 0 1 6.004 0zM8.316 16.684a3.941 3.941 0 0 0 1.335 1.335l-.408.407a4.246 4.246 0 0 1-6.005-6.004l4.07-4.07a4.255 4.255 0 0 1 5.257-.585A3.95 3.95 0 0 1 13.899 9.1a4.046 4.046 0 0 1-.45 5.12l-.268.269a2.319 2.319 0 0 1-1.335-1.336l.269-.268a2.099 2.099 0 0 0 .389-2.39 2.359 2.359 0 0 0-3.862-.81l-4.07 4.07a2.359 2.359 0 0 0 3.336 3.337z"/></svg>