<svg xmlns="http://www.w3.org/2000/svg" viewBox="0 0 24 24"><path d="M16.246 2H7.753A1.365 1.365 0 0 0 6.54 3.212v17.575A1.364 1.364 0 0 0 7.753 22h8.493a1.364 1.364 0 0 0 1.215-1.213V3.212A1.365 1.365 0 0 0 16.246 2zM12 20.164a.967.967 0 1 1 .966-.966.967.967 0 0 1-.966.966zm4.252-3.848a.417.417 0 0 1-.417.417H8.163a.417.417 0 0 1-.416-.417V4.22a.417.417 0 0 1 .416-.417h7.673a.417.417 0 0 1 .417.417z"/><path d="M14.367 9.338l.13-.666H13.45l.192-.996h-.698l-.194.996h-1.048l.195-.996h-.7l-.193.996H9.956l-.13.665h1.047l-.192.999H9.632l-.13.666h1.049l-.194.998h.698l.193-.998h1.048l-.193.998h.7l.193-.998h1.048l.128-.666h-1.046l.193-.999zm-1.94.998h-1.049l.196-.999h1.047z"/></svg>