<svg xmlns="http://www.w3.org/2000/svg" viewBox="0 0 24 24"><path d="M20.364 11.364h-1.29a7.114 7.114 0 0 0-6.438-6.438v-1.29a.636.636 0 1 0-1.273 0v1.29a7.112 7.112 0 0 0-6.436 6.438h-1.29a.636.636 0 0 0 0 1.272h1.29a7.11 7.11 0 0 0 6.438 6.437v1.29a.636.636 0 1 0 1.272 0v-1.29a7.113 7.113 0 0 0 6.438-6.437h1.289a.636.636 0 0 0 0-1.272zm-7.727 6.404a5.22 5.22 0 0 1-.636.065 5.271 5.271 0 0 1-.637-.065 5.8 5.8 0 0 1-5.132-5.132A5.569 5.569 0 0 1 6.167 12a5.837 5.837 0 0 1 .064-.635 5.804 5.804 0 0 1 5.133-5.134 5.548 5.548 0 0 1 .637-.065 5.792 5.792 0 0 1 .636.064 5.803 5.803 0 0 1 5.132 5.133 5.837 5.837 0 0 1 .065.635 5.848 5.848 0 0 1-.065.638 5.8 5.8 0 0 1-5.132 5.133zm-.638-1.97a3.797 3.797 0 1 0-3.796-3.796A3.796 3.796 0 0 0 12 15.798z"/></svg>