<svg xmlns="http://www.w3.org/2000/svg" viewBox="0 0 24 24"><path d="M12 22a10 10 0 1 1 10-10 10 10 0 0 1-10 10zm0-1.333A8.667 8.667 0 1 0 3.333 12 8.667 8.667 0 0 0 12 20.667zm-1.124-4.672a1.099 1.099 0 1 1 1.099 1.099 1.105 1.105 0 0 1-1.099-1.099zm3.976-6.265a2.588 2.588 0 0 1-.679 1.764l-.84 1.099a1.984 1.984 0 0 0-.399.812 1.227 1.227 0 0 1-.28.525.885.885 0 0 1-.679.266.894.894 0 0 1-.679-.28.878.878 0 0 1-.217-.623 1.876 1.876 0 0 1 .504-1.274l1.043-1.316a1.545 1.545 0 0 0 .406-.973 1.055 1.055 0 0 0-1.106-1.092 1.104 1.104 0 0 0-.861.336 1.588 1.588 0 0 0-.35.665 1.4 1.4 0 0 1-.252.462.944.944 0 0 1-1.246-.021A.875.875 0 0 1 9 9.436a2.436 2.436 0 0 1 .805-1.659 3.04 3.04 0 0 1 2.1-.777 2.72 2.72 0 0 1 2.947 2.73z" fill-rule="evenodd"/></svg>