<svg xmlns="http://www.w3.org/2000/svg" viewBox="0 0 24 24"><path d="M10.026 19.823a2.136 2.136 0 0 1 2.066-2.178 2.18 2.18 0 0 1 0 4.355 2.136 2.136 0 0 1-2.066-2.177zM17.5 7.409a5.286 5.286 0 0 1-1.276 3.495l-1.58 2.178a4.024 4.024 0 0 0-.75 1.609 2.474 2.474 0 0 1-.526 1.04 1.62 1.62 0 0 1-1.276.527 1.64 1.64 0 0 1-1.276-.555 1.798 1.798 0 0 1-.408-1.234 3.833 3.833 0 0 1 .947-2.525l1.96-2.607a3.149 3.149 0 0 0 .763-1.928A2.038 2.038 0 0 0 12 5.246a2.02 2.02 0 0 0-1.618.665 3.205 3.205 0 0 0-.658 1.318 2.82 2.82 0 0 1-.474.915 1.497 1.497 0 0 1-1.197.444 1.505 1.505 0 0 1-1.145-.485A1.792 1.792 0 0 1 6.5 6.827 4.939 4.939 0 0 1 8.013 3.54 5.548 5.548 0 0 1 11.96 2a5.233 5.233 0 0 1 5.54 5.41z" fill-rule="evenodd"/></svg>