<svg xmlns="http://www.w3.org/2000/svg" viewBox="0 0 24 24"><path d="M19.59 13.21v-8.8H4.41v10.694c.18-.165.388-.341.62-.518a4.433 4.433 0 0 1 2.956-1.09 2.851 2.851 0 0 1 1.747.776 2.3 2.3 0 0 0 .556.384 2.343 2.343 0 0 0 2.273-.29 4.387 4.387 0 0 0 .604-.43 6.552 6.552 0 0 1 1.08-.959 3.898 3.898 0 0 1 4.312-.567 4.266 4.266 0 0 1 1.032.8zm0 1.229l-.524.359a3.53 3.53 0 0 0-1.18-1.149 2.577 2.577 0 0 0-2.816.473 5.854 5.854 0 0 0-.626.52 5.24 5.24 0 0 0-.258.265 5.2 5.2 0 0 1-.897.668 3.678 3.678 0 0 1-3.612.352 3.71 3.71 0 0 1-.897-.616 1.445 1.445 0 0 0-.896-.41 3.175 3.175 0 0 0-2 .807 7.221 7.221 0 0 0-.687.597c-.122.12-.207.212-.247.258l-.54-.467v3.494h15.18zM21 3v18H3V3zM8.682 11.17a2.489 2.489 0 1 1 2.489-2.488 2.489 2.489 0 0 1-2.489 2.489z"/></svg>