<svg xmlns="http://www.w3.org/2000/svg" viewBox="0 0 24 24"><path d="M12 3.439c-.057 0-.113.066-.156.198l-.937 2.885-1.094 3.366H3.241c-.279 0-.322.134-.097.297l5.317 3.863-2.031 6.25c-.055.17-.03.263.053.263a.353.353 0 0 0 .191-.09L12 16.348l5.326 4.123a.354.354 0 0 0 .19.09c.084 0 .11-.093.054-.263l-2.03-6.25 5.316-3.863c.225-.163.182-.297-.097-.297h-6.572l-1.094-3.366-.937-2.885c-.043-.132-.1-.198-.156-.198m0 3.268l.05.154 1.093 3.366.247.758h4.5l-2.996 2.176-.644.468.246.758 1.088 3.348-2.913-2.255-.671-.52-.671.52-2.913 2.255 1.088-3.348.246-.758-.645-.468-2.994-2.176h4.499l.246-.758L11.95 6.86l.05-.153"/></svg>