<svg xmlns="http://www.w3.org/2000/svg" viewBox="0 0 24 24"><path d="M20.197 10.276L18.554 6.08a2.227 2.227 0 0 0-2.243-1.483H13.99V3.502a.581.581 0 0 0-.624-.661h-2.705a.582.582 0 0 0-.625.66v1.096H7.688A2.226 2.226 0 0 0 5.446 6.08L3.8 10.276a2.287 2.287 0 0 0-1.803 2.273v5.34h1.599v1.704a1.502 1.502 0 1 0 3.002 0v-1.704h10.803v1.704a1.502 1.502 0 1 0 3.002 0v-1.704h1.598v-5.34a2.287 2.287 0 0 0-1.805-2.273M5.145 14.624a1.415 1.415 0 1 1 1.387-1.416 1.4 1.4 0 0 1-1.387 1.416m6.857-4.446H5.504L6.74 6.93c.154-.465.386-.799.929-.804h8.66c.54.005.773.339.928.804l1.238 3.248zm6.851 4.446a1.415 1.415 0 1 1 1.388-1.416 1.402 1.402 0 0 1-1.388 1.416"/></svg>