<svg xmlns="http://www.w3.org/2000/svg" viewBox="0 0 24 24"><path d="M20.43 5.383a1.5 1.5 0 0 1 1.12.462A1.56 1.56 0 0 1 22 6.977v10.046a1.56 1.56 0 0 1-.45 1.132 1.5 1.5 0 0 1-1.12.462H3.593A1.577 1.577 0 0 1 2 17.023V6.977a1.577 1.577 0 0 1 1.594-1.594zm.508 1.594a.516.516 0 0 0-.15-.381.489.489 0 0 0-.358-.15H3.593a.489.489 0 0 0-.357.15.516.516 0 0 0-.15.38v10.047a.516.516 0 0 0 .15.381.489.489 0 0 0 .357.15H20.43a.489.489 0 0 0 .358-.15.516.516 0 0 0 .15-.38zm-9.33 1.2a.781.781 0 0 1-.185.52.656.656 0 0 1-.53.22.7.7 0 0 1-.532-.22.73.73 0 0 1-.208-.52.75.75 0 0 1 .74-.738.673.673 0 0 1 .507.22.73.73 0 0 1 .207.519zm-3.35 3.627a.524.524 0 0 1-.161.358.494.494 0 0 1-.37.173.523.523 0 1 1 .532-.531zm6.329 0a.524.524 0 0 1-.162.358.493.493 0 0 1-.37.173.547.547 0 0 1-.38-.162.493.493 0 0 1-.174-.37.482.482 0 0 1 .173-.38.57.57 0 0 1 .381-.15.554.554 0 0 1 .532.53zm2.84 2.263q0 .185-.138.185a.199.199 0 0 1-.208-.116l-.3-.993h-.07V16.4a.231.231 0 1 1-.461 0v-1.57h-.139v1.57a.231.231 0 1 1-.462 0v-3.257h-.069l-.3.993a.17.17 0 0 1-.323 0l-.324-.993h-.046V16.4q0 .231-.254.231a.204.204 0 0 1-.23-.231v-1.57h-.116v1.57a.204.204 0 0 1-.231.231q-.254 0-.254-.231v-3.257h-.047l-.231.277q-.116.139-.162.139-.115 0-.161-.139l-.185-.485q-.323 0-.346-.207l-.393-2.402h-.139v5.866a.447.447 0 0 1-.115.312.418.418 0 0 1-.6 0 .447.447 0 0 1-.116-.312V12.75h-.231v3.44a.447.447 0 0 1-.116.313.387.387 0 0 1-.3.127.434.434 0 0 1-.438-.44v-5.865h-.116l-.393 2.401a.32.32 0 0 1-.346.208l-.185.485q-.092.139-.161.139-.093 0-.162-.139l-.231-.277h-.07V16.4a.231.231 0 1 1-.461 0v-1.57h-.139v1.57a.231.231 0 1 1-.462 0v-3.257h-.069l-.3.993a.18.18 0 0 1-.347-.069v-.023l.37-1.132a.512.512 0 0 1 .508-.392h.762a.43.43 0 0 1 .335.185 1.003 1.003 0 0 1 .15.208l.07.092.138-.37v-.092l.462-2.61a.873.873 0 0 1 .311-.532.906.906 0 0 1 .612-.23h1.34a.925.925 0 0 1 .647.23.88.88 0 0 1 .3.485l.485 2.656v.093l.138.37.046-.093a1.002 1.002 0 0 1 .162-.208.462.462 0 0 1 .346-.184h.74a.526.526 0 0 1 .53.392l.185.6.185-.6a.554.554 0 0 1 .185-.277.49.49 0 0 1 .323-.115h.74a.478.478 0 0 1 .335.115.586.586 0 0 1 .173.277l.37 1.132zm-.716-2.263a.524.524 0 0 1-.161.358.494.494 0 0 1-.37.173.553.553 0 0 1-.531-.531.497.497 0 0 1 .161-.381.528.528 0 0 1 .37-.15.553.553 0 0 1 .53.53z"/></svg>