<svg xmlns="http://www.w3.org/2000/svg" viewBox="0 0 24 24"><path d="M20.405 5.349A1.594 1.594 0 0 1 22 6.944v10.045a1.594 1.594 0 0 1-1.595 1.595H3.573a1.499 1.499 0 0 1-1.116-.467A1.556 1.556 0 0 1 2 16.989V6.943a1.556 1.556 0 0 1 .456-1.127 1.499 1.499 0 0 1 1.116-.467h2.141V3.982h1.093V5.35h10.388V3.982h1.093V5.35zm.524 1.595a.507.507 0 0 0-.523-.524h-2.119v.98h-1.093v-.98H6.806v.98H5.713v-.98H3.572a.482.482 0 0 0-.353.148.51.51 0 0 0-.148.376v10.045a.51.51 0 0 0 .148.376.482.482 0 0 0 .353.148h16.834a.507.507 0 0 0 .523-.524zM8.857 12.206a1.49 1.49 0 0 1 .467.432 1.237 1.237 0 0 1 .193.73 1.361 1.361 0 0 1-.467 1.127 1.741 1.741 0 0 1-1.127.376 1.843 1.843 0 0 1-1.105-.353 1.373 1.373 0 0 1-.513-1.15h.911a.654.654 0 0 0 .228.5.757.757 0 0 0 .479.16.648.648 0 0 0 .683-.706.655.655 0 0 0-.194-.501.75.75 0 0 0-.535-.182H7.74v-.798h.137a.578.578 0 0 0 .49-.194.71.71 0 0 0 .148-.444.602.602 0 0 0-.182-.478.636.636 0 0 0-.433-.16.56.56 0 0 0-.615.593H6.35a1.387 1.387 0 0 1 .467-1.048A1.589 1.589 0 0 1 7.9 9.723a1.582 1.582 0 0 1 1.116.398 1.37 1.37 0 0 1 .433 1.059 1.097 1.097 0 0 1-.171.65 1.246 1.246 0 0 1-.421.376zm3.166-.41a1.284 1.284 0 0 1 .922.387 1.454 1.454 0 0 1 .399 1.093 1.519 1.519 0 0 1-.456 1.173 1.583 1.583 0 0 1-1.116.422 1.608 1.608 0 0 1-1.116-.41 1.482 1.482 0 0 1-.456-1.162 1.881 1.881 0 0 1 .126-.672 5.82 5.82 0 0 1 .307-.672l1.048-2.187h1.025l-1.07 2.096a.838.838 0 0 1 .204-.057 1.468 1.468 0 0 1 .183-.011zm-.25 2.232a.626.626 0 0 0 .478-.194.75.75 0 0 0 .182-.535.792.792 0 0 0-.182-.547.61.61 0 0 0-.479-.205.636.636 0 0 0-.467.194.756.756 0 0 0-.193.558.724.724 0 0 0 .193.535.636.636 0 0 0 .467.194zm4.054-2.597a1.262 1.262 0 0 1 .934.342 1.331 1.331 0 0 1 .376.638 3.1 3.1 0 0 1 .08.706 2.987 2.987 0 0 1-.08.74 1.216 1.216 0 0 1-.376.58 1.547 1.547 0 0 1-.456.308 1.804 1.804 0 0 1-1.32 0 1.87 1.87 0 0 1-.456-.285 1.147 1.147 0 0 1-.32-.512 3.143 3.143 0 0 1-.09-.536h.911q.114.615.615.615a.616.616 0 0 0 .456-.159.56.56 0 0 0 .148-.308 2.574 2.574 0 0 0 .034-.444 1.355 1.355 0 0 0-.137-.683.512.512 0 0 0-.478-.228.588.588 0 0 0-.41.125.611.611 0 0 0-.182.285h-.843V9.768h2.87v.82h-2.05v1.094a1.055 1.055 0 0 1 .774-.251z"/></svg>