<svg xmlns="http://www.w3.org/2000/svg" viewBox="0 0 24 24"><path d="M20.43 5.372a1.501 1.501 0 0 1 1.12.462A1.56 1.56 0 0 1 22 6.965v10.07a1.56 1.56 0 0 1-.45 1.131 1.501 1.501 0 0 1-1.12.462H3.593A1.577 1.577 0 0 1 2 17.035V6.965a1.577 1.577 0 0 1 1.594-1.593zm.508 1.593a.528.528 0 0 0-.15-.37.472.472 0 0 0-.358-.161H3.593a.472.472 0 0 0-.357.161.528.528 0 0 0-.15.37v10.07a.512.512 0 0 0 .508.508H20.43a.512.512 0 0 0 .508-.508zm-12.356 7.76v-.808l1.894-2.194q.115-.185.185-.312a.644.644 0 0 0 .069-.312.633.633 0 0 0-.162-.45.6.6 0 0 0-.462-.173.676.676 0 0 0-.415.139.6.6 0 0 0-.185.508h-.924a1.382 1.382 0 0 1 .439-1.086 1.568 1.568 0 0 1 1.085-.392 1.6 1.6 0 0 1 1.109.392 1.382 1.382 0 0 1 .439 1.086 1.086 1.086 0 0 1-.15.6q-.15.23-.405.554l-1.408 1.64h1.963v.808zm6.605-.716v.716h-.9v-.716H12.23v-.854l1.732-3.464h.993l-1.709 3.464h1.04v-.947h.9v.947h.462v.854z"/></svg>