<svg xmlns="http://www.w3.org/2000/svg" viewBox="0 0 24 24"><path d="M3.59 18.622h16.819A1.59 1.59 0 0 0 22 17.029V6.971a1.591 1.591 0 0 0-1.591-1.592H3.59A1.591 1.591 0 0 0 2 6.97v10.058a1.59 1.59 0 0 0 1.59 1.593zM3.068 6.97a.524.524 0 0 1 .522-.524h16.819a.525.525 0 0 1 .523.524v10.058a.525.525 0 0 1-.523.524H3.59a.524.524 0 0 1-.522-.524z"/><path d="M14.703 11.429l.149-.76h-1.197l.22-1.138h-.798l-.221 1.138h-1.197l.223-1.138h-.799l-.221 1.138H9.665l-.148.76h1.196l-.22 1.14H9.296l-.148.76h1.198l-.222 1.14h.796l.221-1.14h1.197l-.22 1.14h.798l.222-1.14h1.196l.147-.76h-1.195l.22-1.14zm-2.216 1.14H11.29l.224-1.14h1.195z"/></svg>