<svg xmlns="http://www.w3.org/2000/svg" viewBox="0 0 24 24"><path d="M10.568 9.76h3.21v.808l-1.64 4.227h-.993l1.64-4.227h-1.34v.809h-.877zm9.838-4.434A1.577 1.577 0 0 1 22 6.919v10.07a1.577 1.577 0 0 1-1.593 1.593H3.57a1.501 1.501 0 0 1-1.12-.462A1.56 1.56 0 0 1 2 16.988V6.92a1.56 1.56 0 0 1 .45-1.131 1.501 1.501 0 0 1 1.12-.462h2.125V3.963h1.109v1.363h10.37V3.963h1.108v1.363zm.509 1.593a.527.527 0 0 0-.15-.37.472.472 0 0 0-.358-.161h-2.125v1.016h-1.109V6.388H6.803v1.016H5.696V6.388H3.57a.472.472 0 0 0-.358.162.527.527 0 0 0-.15.37v10.069a.512.512 0 0 0 .508.507h16.837a.512.512 0 0 0 .508-.508z"/></svg>