<svg xmlns="http://www.w3.org/2000/svg" viewBox="0 0 24 24"><path d="M20.407 5.383A1.577 1.577 0 0 1 22 6.977v10.046a1.577 1.577 0 0 1-1.593 1.594H3.593A1.577 1.577 0 0 1 2 17.023V6.977a1.577 1.577 0 0 1 1.594-1.594zm.53 1.594a.513.513 0 0 0-.53-.531H3.593a.513.513 0 0 0-.53.53v10.047a.513.513 0 0 0 .53.531h16.813a.513.513 0 0 0 .532-.53zm-8.89 9.33a4.337 4.337 0 0 1-1.698-.335 4.326 4.326 0 0 1-1.386-7.044 4.444 4.444 0 0 1 1.386-.935 4.21 4.21 0 0 1 1.697-.346 4.129 4.129 0 0 1 1.686.346 4.48 4.48 0 0 1 1.374.935 4.319 4.319 0 0 1 .924 1.374 4.411 4.411 0 0 1 0 3.372 4.305 4.305 0 0 1-2.298 2.298 4.253 4.253 0 0 1-1.686.335zm0-7.99a3.578 3.578 0 0 0-1.433.288 3.668 3.668 0 0 0-1.951 1.951 3.58 3.58 0 0 0-.289 1.432 3.498 3.498 0 0 0 .289 1.42 3.744 3.744 0 0 0 .785 1.155 3.706 3.706 0 0 0 1.166.785 3.578 3.578 0 0 0 1.432.289 3.496 3.496 0 0 0 1.42-.289 3.732 3.732 0 0 0 1.94-1.94 3.498 3.498 0 0 0 .289-1.42 3.58 3.58 0 0 0-.289-1.432 3.7 3.7 0 0 0-1.94-1.951 3.496 3.496 0 0 0-1.42-.289zm-.347 4.272a.297.297 0 0 0 .277.115.378.378 0 0 0 .277-.115.515.515 0 0 0 .07-.185 2.689 2.689 0 0 0 .023-.439 2.687 2.687 0 0 0-.023-.438.515.515 0 0 0-.07-.185.378.378 0 0 0-.277-.116.297.297 0 0 0-.277.116.351.351 0 0 0-.092.185 2.687 2.687 0 0 0-.024.438 2.689 2.689 0 0 0 .024.44.351.351 0 0 0 .092.184zm1.894-1.732v.97l.785-.97h.531l-.739.877.785 1.34h-.508l-.577-1.016-.277.346v.67h-.44v-2.217zm-1.617-.023a.705.705 0 0 1 .577.254.659.659 0 0 1 .208.392 4.45 4.45 0 0 1 .023.485 4.706 4.706 0 0 1-.023.508.57.57 0 0 1-.208.37.705.705 0 0 1-.577.254.731.731 0 0 1-.6-.254.57.57 0 0 1-.208-.37 4.706 4.706 0 0 1-.023-.508 4.45 4.45 0 0 1 .023-.485.659.659 0 0 1 .208-.392.731.731 0 0 1 .6-.254zm-2.887.023h.37l.878 1.362v-1.362h.438v2.217h-.392l-.878-1.363v1.363H9.09z"/></svg>