<svg xmlns="http://www.w3.org/2000/svg" viewBox="0 0 24 24"><path d="M2.498 17.824h19.005v.897H2.498zm19.468-4.237l-.387-1.743-.675-3.044-.091-.41a.459.459 0 0 0-.427-.345h-8.017l1.903-1.68a.483.483 0 0 0-.016-.738L11.714 3.58h-1.535l3.026 2.441-2.294 2.024H3.616a.459.459 0 0 0-.428.344l-.38 1.71-.717 3.236-.057.254a2.242 2.242 0 0 0 .277 1.5l.757 1.148H5.68v.275a.706.706 0 0 0 .705.7h2.203a.706.706 0 0 0 .705-.705v-.27h5.415v.276a.707.707 0 0 0 .705.7h2.203a.705.705 0 0 0 .703-.705v-.27h2.611l.757-1.147a2.244 2.244 0 0 0 .279-1.502zM7.01 12.873H3.075l.706-3.182H7.01zm4.64 0H7.72V9.691h3.934zm4.64 0h-3.932V9.691h3.934zm.707 0V9.691h3.217l.707 3.182z"/></svg>