<svg xmlns="http://www.w3.org/2000/svg" viewBox="0 0 24 24"><path d="M20.18 5.67H4.29a.22.22 0 0 0-.22.22v15.68a.43.43 0 0 0 .43.43H20a.43.43 0 0 0 .43-.43V5.89a.22.22 0 0 0-.25-.22zM8.89 17.18a.37.37 0 0 1-.37.37.38.38 0 0 1-.37-.37V9a.38.38 0 0 1 .37-.37.37.37 0 0 1 .37.37zm3.71 0a.37.37 0 0 1-.37.37.38.38 0 0 1-.37-.37V9a.38.38 0 0 1 .37-.37.37.37 0 0 1 .37.37zm3.72 0a.38.38 0 0 1-.75 0V9a.38.38 0 0 1 .75 0zM20.16 3.7h-3.79V2.56a.56.56 0 0 0-.56-.56H8.65a.56.56 0 0 0-.55.56V3.7H4.31a.24.24 0 0 0-.24.24v1a.25.25 0 0 0 .24.25h15.85a.25.25 0 0 0 .24-.25v-1a.24.24 0 0 0-.24-.24zm-7.93 0h-3v-.59h6v.59z"/></svg>