<svg xmlns="http://www.w3.org/2000/svg" viewBox="0 0 24 24"><path d="M22 5.586a8.358 8.358 0 0 1-2.347.676 4.178 4.178 0 0 0 1.796-2.356 7.82 7.82 0 0 1-2.612 1.024 4.03 4.03 0 0 0-3-1.332 4.178 4.178 0 0 0-4.102 4.242 4.974 4.974 0 0 0 .102.963 11.51 11.51 0 0 1-8.45-4.426 4.412 4.412 0 0 0-.55 2.131 4.25 4.25 0 0 0 1.816 3.525A3.84 3.84 0 0 1 2.796 9.5v.061a4.212 4.212 0 0 0 3.286 4.16A3.828 3.828 0 0 1 5 13.866a3.213 3.213 0 0 1-.775-.082 4.132 4.132 0 0 0 3.857 2.95 8.006 8.006 0 0 1-5.102 1.825 7.856 7.856 0 0 1-.98-.062 11.31 11.31 0 0 0 6.286 1.906c7.55 0 11.673-6.455 11.673-12.07a5.017 5.017 0 0 0-.02-.553A8.103 8.103 0 0 0 22 5.586"/></svg>