<svg xmlns="http://www.w3.org/2000/svg" viewBox="0 0 24 24"><path d="M11.24 4.294A1.036 1.036 0 0 1 13 5v13.998a1.036 1.036 0 0 1-1.76.707L7.417 16H3.03A1.016 1.016 0 0 1 2 15V9a1.016 1.016 0 0 1 1.031-1h4.386zm10.725 5.827l-1.794 1.793a.123.123 0 0 0 0 .173l1.794 1.793a.122.122 0 0 1 0 .172l-.912.912a.122.122 0 0 1-.173 0l-1.793-1.793a.123.123 0 0 0-.173 0l-1.793 1.793a.122.122 0 0 1-.173 0l-.913-.912a.122.122 0 0 1 0-.172l1.794-1.794a.123.123 0 0 0 0-.172l-1.794-1.794a.124.124 0 0 1 0-.173l.913-.912a.123.123 0 0 1 .173 0l1.793 1.794a.122.122 0 0 0 .173 0l1.793-1.793a.122.122 0 0 1 .172 0l.912.912a.124.124 0 0 1 0 .173z" fill-rule="evenodd"/></svg>