<svg xmlns="http://www.w3.org/2000/svg" viewBox="0 0 24 24"><path d="M11.24 4.294A1.036 1.036 0 0 1 13 5v13.998a1.036 1.036 0 0 1-1.76.707L7.417 16H3.03A1.016 1.016 0 0 1 2 15V9a1.016 1.016 0 0 1 1.031-1h4.386zM16.444 17a.427.427 0 0 1-.337-.165.451.451 0 0 1 .066-.623 5.486 5.486 0 0 0-.011-8.423.451.451 0 0 1-.068-.622.423.423 0 0 1 .606-.07 6.387 6.387 0 0 1 .013 9.805.422.422 0 0 1-.27.098zm1.022 2a.446.446 0 0 1-.35-.17.462.462 0 0 1 .07-.642 8.006 8.006 0 0 0-.017-12.375.462.462 0 0 1-.07-.642.444.444 0 0 1 .63-.071 8.928 8.928 0 0 1 .018 13.8.444.444 0 0 1-.28.1zm-2.31-4.733a2.968 2.968 0 0 0-.006-4.533.422.422 0 0 1-.063-.58.389.389 0 0 1 .56-.064 3.81 3.81 0 0 1 .007 5.82.389.389 0 0 1-.56-.064.422.422 0 0 1 .062-.58z" fill-rule="evenodd"/></svg>