<svg xmlns="http://www.w3.org/2000/svg" viewBox="0 0 24 24"><path d="M12.758 3.752A1.769 1.769 0 1 1 14.526 5.5a1.76 1.76 0 0 1-1.768-1.748zm-.597 1.772a.861.861 0 0 1 .2-.024.838.838 0 0 1 .318.062l.532.221.06.015c.04.017.074.039.112.057l.74.307a.795.795 0 0 1 .446.469l1.14 3.182 2.129.939a.788.788 0 0 1 .407 1.048.818.818 0 0 1-1.072.398L14.73 11.12a.806.806 0 0 1-.432-.461l-.466-1.302-1.218 3.119c-.018.047-.044.093-.067.139l3.532 7.8a1.081 1.081 0 0 1-.566 1.44 1.122 1.122 0 0 1-1.468-.554l-2.95-6.514c-1.283 2.578-3.17 6.362-3.307 6.617a.533.533 0 0 1-.067.11v.001a1.13 1.13 0 0 1-1.544.3 1.08 1.08 0 0 1-.36-1.423l.002-.006.009-.015.031-.06c.034-.068.083-.167.147-.29l.512-1.025c.422-.844.981-1.963 1.537-3.081l1.464-2.936a1.754 1.754 0 0 1-.355-1.64l.032-.101a1.752 1.752 0 0 1 .118-.3l1.325-3.393-1.573.396-1.355 3.205a.818.818 0 0 1-1.059.43.792.792 0 0 1-.438-1.038l1.512-3.57a.802.802 0 0 1 .545-.464z"/></svg>